# Blender v2.78 (sub 0) OBJ File: 'shipV2.blend'
# www.blender.org
mtllib HealthPack.mtl
o Cube.001
v -0.604333 0.818464 0.604333
v -0.818464 0.604333 0.604333
v -0.604333 0.604333 0.818464
v -0.604333 -0.604333 0.818464
v -0.818464 -0.604333 -0.604333
v -0.818464 -0.604333 0.604333
v -0.604333 -0.818464 0.604333
v -0.604333 -0.818464 -0.604333
v -0.738374 -1.000000 0.738374
v -0.738374 -0.738374 1.000000
v -1.000000 -0.738374 0.738374
v -0.738374 0.738374 1.000000
v -0.738374 1.000000 0.738374
v -1.000000 0.738374 0.738374
v -0.738374 -1.000000 -0.738374
v -1.000000 -0.738374 -0.738374
v -0.738374 -0.738374 -1.000000
v -0.738374 1.000000 -0.738374
v -0.738374 0.738374 -1.000000
v -1.000000 0.738374 -0.738374
v 0.738374 -1.000000 0.738374
v 1.000000 -0.738374 0.738374
v 0.738374 -0.738374 1.000000
v 0.738374 1.000000 0.738374
v 0.738374 0.738374 1.000000
v 1.000000 0.738374 0.738374
v 0.738374 -1.000000 -0.738374
v 0.738374 -0.738374 -1.000000
v 1.000000 -0.738374 -0.738374
v 0.738374 1.000000 -0.738374
v 1.000000 0.738374 -0.738374
v 0.738374 0.738374 -1.000000
v -0.604333 0.818464 -0.604333
v -0.818464 0.604333 -0.604333
v -0.604333 0.604333 -0.818464
v -0.604333 -0.604333 -0.818464
v 0.604333 -0.818464 -0.604333
v 0.604333 -0.604333 -0.818464
v 0.604333 0.818464 -0.604333
v 0.604333 0.604333 -0.818464
v 0.818464 0.604333 -0.604333
v 0.818464 -0.604333 -0.604333
v 0.604333 -0.818464 0.604333
v 0.818464 -0.604333 0.604333
v 0.604333 0.818464 0.604333
v 0.818464 0.604333 0.604333
v 0.604333 0.604333 0.818464
v 0.604333 -0.604333 0.818464
vt 0.6720 0.3633
vt 0.7810 0.3633
vt 0.7711 0.3500
vt 0.6819 0.3500
vt 0.6527 0.4916
vt 0.6527 0.3826
vt 0.6661 0.3925
vt 0.6661 0.4817
vt 0.8265 0.3335
vt 0.8265 0.9737
vt 0.1863 0.9737
vt 0.1863 0.3335
vt 0.7810 0.3633
vt 0.6720 0.3633
vt 0.6819 0.3767
vt 0.7711 0.3767
vt 0.6720 0.3633
vt 0.7810 0.3633
vt 0.7711 0.3767
vt 0.6819 0.3767
vt 0.6527 0.3826
vt 0.6527 0.4916
vt 0.6393 0.4817
vt 0.6393 0.3925
vt 0.6720 0.3826
vt 0.6720 0.3633
vt 0.6720 0.3826
vt 0.6527 0.3826
vt 0.6720 0.4916
vt 0.6720 0.5109
vt 0.6720 0.4916
vt 0.6720 0.5109
vt 0.6527 0.4916
vt 0.7810 0.3826
vt 0.8003 0.3826
vt 0.7810 0.3633
vt 0.7810 0.3826
vt 0.8003 0.3826
vt 0.7810 0.4916
vt 0.7810 0.5109
vt 0.8003 0.4916
vt 0.7810 0.4916
vt 0.8003 0.4916
vt 0.7810 0.5109
vt 0.6720 0.3826
vt 0.6720 0.4916
vt 0.6527 0.4916
vt 0.6720 0.4916
vt 0.6720 0.3826
vt 0.6527 0.3826
vt 0.6527 0.4916
vt 0.6527 0.3826
vt 0.6334 0.3826
vt 0.6334 0.4916
vt 0.7810 0.4916
vt 0.7810 0.3826
vt 0.8003 0.4916
vt 0.6720 0.3633
vt 0.7810 0.3633
vt 0.7711 0.3767
vt 0.6819 0.3767
vt 0.8265 0.3335
vt 0.8265 0.9737
vt 0.1863 0.9737
vt 0.1863 0.3335
vt 0.8265 0.9737
vt 0.1863 0.9737
vt 0.1863 0.3335
vt 0.8265 0.3335
vt 0.1863 0.3335
vt 0.1863 0.9737
vt 0.8265 0.9737
vt 0.8265 0.3335
vt 0.1863 0.3335
vt 0.1863 0.9737
vt 0.8265 0.9737
vt 0.8265 0.3335
vt 0.1863 0.9737
vt 0.8265 0.9737
vt 0.8265 0.3335
vt 0.1863 0.3335
vt 0.7810 0.3633
vt 0.6720 0.3633
vt 0.6819 0.3500
vt 0.7711 0.3500
vt 0.6527 0.4916
vt 0.6527 0.3826
vt 0.6661 0.3925
vt 0.6661 0.4817
vt 0.6527 0.3826
vt 0.6393 0.3925
vt 0.6393 0.4817
vt 0.6720 0.3633
vt 0.6819 0.3500
vt 0.6661 0.4817
vt 0.6527 0.3826
vt 0.6527 0.4916
vt 0.6661 0.4817
vt 0.6661 0.3925
vt 0.6720 0.3633
vt 0.7810 0.3633
vt 0.7711 0.3500
vt 0.6819 0.3500
vt 0.7810 0.3633
vt 0.6720 0.3633
vt 0.6819 0.3500
vt 0.7711 0.3500
vt 0.6527 0.4916
vt 0.6393 0.4817
vt 0.6393 0.3925
vt 0.6661 0.4817
vt 0.6661 0.3925
vt 0.7810 0.3633
vt 0.7711 0.3767
vt 0.6527 0.4916
vt 0.6527 0.3826
vt 0.6393 0.3925
vt 0.6393 0.4817
vt 0.6527 0.3826
vt 0.6527 0.4916
vt 0.6393 0.4817
vt 0.6393 0.3925
vt 0.7711 0.3767
vt 0.6819 0.3767
vt 0.6720 0.3633
vt 0.6819 0.3767
vt 0.6661 0.3925
vt 0.7810 0.3633
vt 0.7711 0.3500
vn -0.8045 0.5940 0.0000
vn -0.5940 0.8045 0.0000
vn 0.0000 0.0000 1.0000
vn 0.0000 -0.8045 0.5940
vn 0.0000 -0.5940 0.8045
vn 0.5940 0.8045 0.0000
vn -0.5774 -0.5774 0.5774
vn -0.5774 0.5774 0.5774
vn -0.5774 -0.5774 -0.5774
vn -0.5774 0.5774 -0.5774
vn 0.5774 -0.5774 0.5774
vn 0.5774 0.5774 0.5774
vn 0.5774 -0.5774 -0.5774
vn 0.5774 0.5774 -0.5774
vn -0.7071 -0.7071 0.0000
vn -0.7071 0.0000 0.7071
vn -0.7071 0.7071 0.0000
vn -0.7071 0.0000 -0.7071
vn 0.0000 -0.7071 -0.7071
vn 0.0000 0.7071 -0.7071
vn 0.7071 0.0000 -0.7071
vn 0.7071 -0.7071 0.0000
vn 0.7071 0.7071 0.0000
vn 0.7071 0.0000 0.7071
vn 0.0000 -0.7071 0.7071
vn 0.0000 0.7071 0.7071
vn 0.8045 -0.5940 0.0000
vn 1.0000 0.0000 0.0000
vn 0.0000 1.0000 0.0000
vn -1.0000 0.0000 0.0000
vn 0.0000 0.0000 -1.0000
vn 0.0000 -1.0000 0.0000
vn 0.0000 0.8045 -0.5940
vn 0.8045 0.0000 0.5940
vn 0.5940 -0.8045 0.0000
vn 0.0000 0.5940 0.8045
vn -0.5940 0.0000 -0.8045
vn -0.8045 0.0000 0.5940
vn 0.0000 -0.8045 -0.5940
vn 0.8045 0.5940 0.0000
vn 0.5940 0.0000 -0.8045
vn 0.5940 0.0000 0.8045
vn -0.5940 -0.8045 0.0000
vn 0.0000 -0.5940 -0.8045
vn -0.8045 0.0000 -0.5940
vn 0.8045 0.0000 -0.5940
vn 0.0000 0.8045 0.5940
vn -0.8045 -0.5940 0.0000
vn -0.5940 0.0000 0.8045
vn 0.0000 0.5940 -0.8045
usemtl Material.001
s off
f 24/1/1 30/2/1 39/3/1 45/4/1
f 16/5/2 11/6/2 6/7/2 5/8/2
f 48/9/3 47/10/3 3/11/3 4/12/3
f 25/13/4 12/14/4 3/15/4 47/16/4
f 15/17/5 27/18/5 37/19/5 8/20/5
f 22/21/6 29/22/6 42/23/6 44/24/6
f 9/25/7 10/26/7 11/6/7
f 12/14/8 13/27/8 14/28/8
f 15/29/9 16/5/9 17/30/9
f 18/31/10 19/32/10 20/33/10
f 21/34/11 22/35/11 23/36/11
f 24/37/12 25/13/12 26/38/12
f 27/39/13 28/40/13 29/41/13
f 30/42/14 31/43/14 32/44/14
f 15/29/15 9/25/15 11/6/15 16/5/15
f 10/45/16 12/46/16 14/47/16 11/6/16
f 13/27/17 18/31/17 20/33/17 14/28/17
f 19/48/18 17/49/18 16/50/18 20/33/18
f 27/39/19 15/29/19 17/30/19 28/40/19
f 18/31/20 30/42/20 32/44/20 19/32/20
f 31/51/21 29/52/21 28/53/21 32/54/21
f 21/34/22 27/39/22 29/41/22 22/35/22
f 30/42/23 24/37/23 26/38/23 31/43/23
f 25/55/24 23/56/24 22/35/24 26/57/24
f 9/25/25 21/34/25 23/36/25 10/26/25
f 24/37/26 13/27/26 12/14/26 25/13/26
f 9/58/27 15/59/27 8/60/27 7/61/27
f 42/62/28 41/63/28 46/64/28 44/65/28
f 39/66/29 33/67/29 1/68/29 45/69/29
f 6/70/30 2/71/30 34/72/30 5/73/30
f 36/74/31 35/75/31 40/76/31 38/77/31
f 8/78/32 37/79/32 43/80/32 7/81/32
f 28/82/33 17/83/33 36/84/33 38/85/33
f 12/86/34 10/87/34 4/88/34 3/89/34
f 31/51/35 26/90/35 46/91/35 41/92/35
f 30/2/36 18/93/36 33/94/36 39/3/36
f 11/6/37 14/47/37 2/95/37 6/7/37
f 23/96/38 25/97/38 47/98/38 48/99/38
f 19/100/39 32/101/39 40/102/39 35/103/39
f 18/104/40 13/105/40 1/106/40 33/107/40
f 26/108/41 22/21/41 44/24/41 46/109/41
f 29/52/42 31/51/42 41/92/42 42/110/42
f 14/28/43 20/33/43 34/111/43 2/112/43
f 21/113/44 9/58/44 7/61/44 43/114/44
f 32/115/45 28/116/45 38/117/45 40/118/45
f 17/119/46 19/120/46 35/121/46 36/122/46
f 10/26/47 23/36/47 48/123/47 4/124/47
f 27/18/48 21/125/48 43/126/48 37/19/48
f 20/33/49 16/50/49 5/127/49 34/111/49
f 13/105/50 24/128/50 45/129/50 1/106/50
